# File created by Blade
# Date/Time:  Thu Jan 22 19:29:39 2015
# Frame Rate: 120.000 fps
#------------------------------------------------------
:FULLY-SPECIFIED
:DEGREES
1372
root 2.358232 33.822335 1.327180 89.657305 -14.809029 -26.429246
RightUpLeg -5.912131 16.987815 -28.818024
RightLeg 151.231737 -0.000000 -0.000000
RightFoot 35.347697 5.710176 4.392168
RightToeBase -18.989215 -0.000000 0.000000
LeftUpLeg -92.457348 15.616040 6.607075
LeftLeg 32.147336 -0.000000 -0.000000
LeftFoot -26.419048 7.967912 -12.457026
LeftToeBase 10.108353 -0.000000 -0.000000
Spine -18.562053 -6.020126 -0.089373
RightShoulder -18.300901 -34.731154 -15.944755
RightArm 8.835783 -64.138611 62.408020
RightForeArm 36.999105 -0.000000 42.304905
RightHand -10.816611 0.000000 13.614918
RightHandThumb1 -24.326973 -0.000000 -32.862282
LeftShoulder -34.514291 7.219174 33.595372
LeftArm 155.858590 -41.924435 -116.634759
LeftForeArm -12.923774 0.000000 60.375800
LeftHand -15.033892 0.000000 11.408960
LeftHandThumb1 -26.253704 0.000000 33.147579
Head -14.881806 29.372336 -14.123612
1373
root 2.355243 33.822759 1.327646 89.641997 -14.818816 -26.393697
RightUpLeg -5.887925 16.854397 -28.736436
RightLeg 151.278676 -0.000000 -0.000000
RightFoot 35.342728 5.735563 4.329111
RightToeBase -18.997671 -0.000000 0.000000
LeftUpLeg -92.462391 15.603852 6.579437
LeftLeg 32.166632 -0.000000 -0.000000
LeftFoot -26.421563 7.846793 -12.575670
LeftToeBase 10.217217 -0.000000 -0.000000
Spine -18.576165 -6.076210 -0.119631
RightShoulder -18.328152 -34.705135 -15.926901
RightArm 8.890788 -64.252379 62.414035
RightForeArm 37.219697 -0.000000 42.267524
RightHand -10.689056 -0.000000 13.249058
RightHandThumb1 -24.326973 -0.000000 -32.862282
LeftShoulder -34.527692 7.214635 33.585769
LeftArm 155.824845 -41.946243 -116.618952
LeftForeArm -13.051413 -0.000000 60.454970
LeftHand -15.037958 -0.000000 11.427470
LeftHandThumb1 -26.253704 0.000000 33.147579
Head -14.984060 29.342218 -14.126254
1374
root 2.353177 33.823056 1.327489 89.621797 -14.827109 -26.360507
RightUpLeg -5.867048 16.730392 -28.657256
RightLeg 151.330445 -0.000000 -0.000000
RightFoot 35.350377 5.686283 4.389093
RightToeBase -18.899366 -0.000000 0.000000
LeftUpLeg -92.446662 15.582896 6.577006
LeftLeg 32.165461 -0.000000 -0.000000
LeftFoot -26.398561 7.801081 -12.602835
LeftToeBase 10.401994 -0.000000 -0.000000
Spine -18.575430 -6.108987 -0.158397
RightShoulder -18.324876 -34.698529 -15.880819
RightArm 8.819944 -64.238884 62.528489
RightForeArm 37.255619 -0.000000 42.257215
RightHand -10.744860 -0.000000 13.256102
RightHandThumb1 -24.326973 -0.000000 -32.862282
LeftShoulder -34.547277 7.204800 33.596620
LeftArm 155.771151 -41.924574 -116.620762
LeftForeArm -13.153373 0.000000 60.525062
LeftHand -14.987383 0.000000 11.221285
LeftHandThumb1 -26.253704 0.000000 33.147579
Head -15.101205 29.296225 -14.147038
1375
root 2.351933 33.822888 1.328519 89.610176 -14.835603 -26.313959
RightUpLeg -5.852907 16.590471 -28.587803
RightLeg 151.368735 -0.000000 -0.000000
RightFoot 35.387396 5.668607 4.395454
RightToeBase -19.035956 -0.000000 0.000000
LeftUpLeg -92.432690 15.540910 6.596964
LeftLeg 32.155290 -0.000000 -0.000000
LeftFoot -26.413971 7.761387 -12.707653
LeftToeBase 10.360874 -0.000000 -0.000000
Spine -18.589934 -6.143801 -0.184972
RightShoulder -18.375508 -34.698136 -15.842600
RightArm 8.876499 -64.271535 62.537667
RightForeArm 37.298350 -0.000000 42.206072
RightHand -10.804463 -0.000000 13.463520
RightHandThumb1 -24.326973 -0.000000 -32.862282
LeftShoulder -34.527979 7.184846 33.618205
LeftArm 155.700517 -41.944690 -116.630732
LeftForeArm -13.161267 -0.000000 60.602479
LeftHand -15.033325 -0.000000 11.484058
LeftHandThumb1 -26.253704 0.000000 33.147579
Head -15.194367 29.235674 -14.193576
1376
root 2.351933 33.822803 1.329170 89.607141 -14.857281 -26.282088
RightUpLeg -5.860931 16.476776 -28.547489
RightLeg 151.405778 -0.000000 -0.000000
RightFoot 35.415055 5.620590 4.469456
RightToeBase -19.122379 -0.000000 0.000000
LeftUpLeg -92.407557 15.502735 6.627798
LeftLeg 32.131121 -0.000000 -0.000000
LeftFoot -26.413686 7.793708 -12.722381
LeftToeBase 10.458995 -0.000000 -0.000000
Spine -18.601576 -6.154052 -0.235755
RightShoulder -18.422056 -34.691714 -15.779677
RightArm 8.890044 -64.308198 62.570198
RightForeArm 37.317719 -0.000000 42.166435
RightHand -10.814500 0.000000 13.452419
RightHandThumb1 -24.326973 -0.000000 -32.862282
LeftShoulder -34.533739 7.178379 33.632402
LeftArm 155.674701 -41.907462 -116.668929
LeftForeArm -13.146127 -0.000000 60.615667
LeftHand -15.056846 -0.000000 11.537321
LeftHandThumb1 -26.253704 0.000000 33.147579
Head -15.324009 29.198385 -14.256612
1377
root 2.351207 33.823278 1.329272 89.606200 -14.872650 -26.251641
RightUpLeg -5.880150 16.385635 -28.506300
RightLeg 151.438996 -0.000000 -0.000000
RightFoot 35.443848 5.653009 4.497886
RightToeBase -19.213518 -0.000000 0.000000
LeftUpLeg -92.394083 15.474413 6.630445
LeftLeg 32.102084 -0.000000 -0.000000
LeftFoot -26.399780 7.789462 -12.743725
LeftToeBase 10.372286 -0.000000 -0.000000
Spine -18.613061 -6.162125 -0.289790
RightShoulder -18.451384 -34.692509 -15.702910
RightArm 8.905666 -64.345798 62.594390
RightForeArm 37.335886 -0.000000 42.127509
RightHand -10.802375 -0.000000 13.404183
RightHandThumb1 -24.326973 -0.000000 -32.862282
LeftShoulder -34.526910 7.150289 33.675172
LeftArm 155.636821 -41.898776 -116.706678
LeftForeArm -13.107692 -0.000000 60.600584
LeftHand -15.049471 -0.000000 11.483515
LeftHandThumb1 -26.253704 0.000000 33.147579
Head -15.438672 29.149447 -14.279621
1378
root 2.351072 33.822665 1.329167 89.601344 -14.886448 -26.223225
RightUpLeg -5.894714 16.273347 -28.473288
RightLeg 151.461946 -0.000000 -0.000000
RightFoot 35.485116 5.567415 4.608416
RightToeBase -19.360145 -0.000000 0.000000
LeftUpLeg -92.384740 15.447612 6.613731
LeftLeg 32.076802 -0.000000 -0.000000
LeftFoot -26.402874 7.796633 -12.765819
LeftToeBase 10.422667 -0.000000 -0.000000
Spine -18.612147 -6.164979 -0.333173
RightShoulder -18.500018 -34.672420 -15.632000
RightArm 8.944939 -64.402971 62.593054
RightForeArm 37.343970 -0.000000 42.058287
RightHand -10.848383 -0.000000 13.287432
RightHandThumb1 -24.326973 -0.000000 -32.862282
LeftShoulder -34.535066 7.124025 33.682733
LeftArm 155.632880 -42.012229 -116.743368
LeftForeArm -13.238385 0.000000 60.540014
LeftHand -15.033566 -0.000000 11.586617
LeftHandThumb1 -26.253704 0.000000 33.147579
Head -15.571372 29.123410 -14.328796
1379
root 2.349289 33.822288 1.328359 89.596108 -14.894112 -26.209384
RightUpLeg -5.922608 16.179008 -28.444783
RightLeg 151.476835 -0.000000 -0.000000
RightFoot 35.429152 5.528264 4.532553
RightToeBase -19.068749 -0.000000 0.000000
LeftUpLeg -92.376672 15.442302 6.587405
LeftLeg 32.056028 -0.000000 -0.000000
LeftFoot -26.410529 7.775890 -12.786147
LeftToeBase 10.449878 -0.000000 -0.000000
Spine -18.605472 -6.140036 -0.391976
RightShoulder -18.545788 -34.638854 -15.544307
RightArm 8.899791 -64.439264 62.664087
RightForeArm 37.410978 -0.000000 41.978382
RightHand -10.815004 -0.000000 13.274103
RightHandThumb1 -24.326973 -0.000000 -32.862282
LeftShoulder -34.487749 7.056808 33.778838
LeftArm 155.551911 -42.087995 -116.789222
LeftForeArm -13.260612 -0.000000 60.506613
LeftHand -14.947154 -0.000000 11.576456
LeftHandThumb1 -26.253704 0.000000 33.147579
Head -15.691971 29.085485 -14.329520
1380
root 2.347731 33.821299 1.327551 89.586287 -14.886261 -26.194467
RightUpLeg -5.944524 16.114087 -28.404088
RightLeg 151.471214 -0.000000 -0.000000
RightFoot 35.455738 5.453999 4.627093
RightToeBase -19.298347 -0.000000 0.000000
LeftUpLeg -92.377392 15.435470 6.559515
LeftLeg 32.041445 -0.000000 -0.000000
LeftFoot -26.402060 7.768758 -12.765861
LeftToeBase 10.332155 -0.000000 -0.000000
Spine -18.594436 -6.140684 -0.413697
RightShoulder -18.552633 -34.623904 -15.488680
RightArm 8.907157 -64.463958 62.706748
RightForeArm 37.274227 -0.000000 41.884590
RightHand -10.787250 -0.000000 13.163511
RightHandThumb1 -24.326973 -0.000000 -32.862282
LeftShoulder -34.503534 7.037741 33.791017
LeftArm 155.571964 -42.055233 -116.828606
LeftForeArm -13.239412 -0.000000 60.378876
LeftHand -14.883250 -0.000000 11.547555
LeftHandThumb1 -26.253704 0.000000 33.147579
Head -15.804358 29.073994 -14.345283
1381
root 2.345356 33.819812 1.326174 89.577190 -14.881996 -26.191322
RightUpLeg -5.975028 16.066564 -28.379175
RightLeg 151.463944 -0.000000 -0.000000
RightFoot 35.386746 5.430345 4.594519
RightToeBase -18.801614 -0.000000 0.000000
LeftUpLeg -92.381413 15.443032 6.530127
LeftLeg 32.047778 -0.000000 -0.000000
LeftFoot -26.410905 7.777115 -12.726737
LeftToeBase 10.299961 -0.000000 -0.000000
Spine -18.581436 -6.111014 -0.461050
RightShoulder -18.595258 -34.598042 -15.400326
RightArm 8.887688 -64.438020 62.746459
RightForeArm 37.334976 -0.000000 41.755992
RightHand -10.802804 -0.000000 13.333012
RightHandThumb1 -24.326973 -0.000000 -32.862282
LeftShoulder -34.491502 7.006959 33.845190
LeftArm 155.553211 -42.015629 -116.867221
LeftForeArm -13.182749 -0.000000 60.291514
LeftHand -14.878894 -0.000000 11.657951
LeftHandThumb1 -26.253704 0.000000 33.147579
Head -15.895038 29.047771 -14.313774
1382
root 2.344692 33.818150 1.324234 89.570331 -14.867041 -26.183518
RightUpLeg -6.005967 16.040109 -28.365286
RightLeg 151.444922 -0.000000 -0.000000
RightFoot 35.394407 5.437735 4.546757
RightToeBase -19.145134 -0.000000 0.000000
LeftUpLeg -92.405295 15.445526 6.498348
LeftLeg 32.068934 -0.000000 -0.000000
LeftFoot -26.404645 7.753829 -12.696950
LeftToeBase 10.217881 -0.000000 -0.000000
Spine -18.572910 -6.092502 -0.479404
RightShoulder -18.563780 -34.565911 -15.351490
RightArm 8.685086 -64.352195 62.951819
RightForeArm 37.257310 -0.000000 41.673097
RightHand -10.805307 -0.000000 13.337925
RightHandThumb1 -24.326973 -0.000000 -32.862282
LeftShoulder -34.458545 6.937372 33.916641
LeftArm 155.476510 -41.969390 -116.869190
LeftForeArm -13.053320 -0.000000 60.242583
LeftHand -14.976469 -0.000000 11.804174
LeftHandThumb1 -26.253704 0.000000 33.147579
Head -15.960761 29.024495 -14.282417
